<?xml version="1.0" encoding="utf-8" standalone="no"?>
<!DOCTYPE svg PUBLIC "-//W3C//DTD SVG 1.1//EN"
  "http://www.w3.org/Graphics/SVG/1.1/DTD/svg11.dtd">
<svg xmlns:xlink="http://www.w3.org/1999/xlink" width="720pt" height="720pt" viewBox="0 0 720 720" xmlns="http://www.w3.org/2000/svg" version="1.1">
 <metadata>
  <rdf:RDF xmlns:dc="http://purl.org/dc/elements/1.1/" xmlns:cc="http://creativecommons.org/ns#" xmlns:rdf="http://www.w3.org/1999/02/22-rdf-syntax-ns#">
   <cc:Work>
    <dc:type rdf:resource="http://purl.org/dc/dcmitype/StillImage"/>
    <dc:date>2025-03-20T21:55:21.845696</dc:date>
    <dc:format>image/svg+xml</dc:format>
    <dc:creator>
     <cc:Agent>
      <dc:title>Matplotlib v3.9.3, https://matplotlib.org/</dc:title>
     </cc:Agent>
    </dc:creator>
   </cc:Work>
  </rdf:RDF>
 </metadata>
 <defs>
  <style type="text/css">*{stroke-linejoin: round; stroke-linecap: butt}</style>
 </defs>
 <g id="figure_1">
  <g id="patch_1">
   <path d="M 0 720 
L 720 720 
L 720 0 
L 0 0 
z
" style="fill: #ffffff"/>
  </g>
  <g id="axes_1">
   <g id="patch_2">
    <path d="M 65.97 669.78 
L 707.04 669.78 
L 707.04 12.96 
L 65.97 12.96 
z
" style="fill: #ffffff"/>
   </g>
   <g id="matplotlib.axis_1">
    <g id="xtick_1">
     <g id="line2d_1">
      <path d="M 93.563791 669.78 
L 93.563791 12.96 
" clip-path="url(#p600582dee5)" style="fill: none; stroke: #cccccc; stroke-linecap: round"/>
     </g>
     <g id="text_1">
      <!-- 0 -->
      <g style="fill: #262626" transform="translate(90.064416 687.638281) scale(0.11 -0.11)">
       <defs>
        <path id="DejaVuSans-30" d="M 2034 4250 
Q 1547 4250 1301 3770 
Q 1056 3291 1056 2328 
Q 1056 1369 1301 889 
Q 1547 409 2034 409 
Q 2525 409 2770 889 
Q 3016 1369 3016 2328 
Q 3016 3291 2770 3770 
Q 2525 4250 2034 4250 
z
M 2034 4750 
Q 2819 4750 3233 4129 
Q 3647 3509 3647 2328 
Q 3647 1150 3233 529 
Q 2819 -91 2034 -91 
Q 1250 -91 836 529 
Q 422 1150 422 2328 
Q 422 3509 836 4129 
Q 1250 4750 2034 4750 
z
" transform="scale(0.015625)"/>
       </defs>
       <use xlink:href="#DejaVuSans-30"/>
      </g>
     </g>
    </g>
    <g id="xtick_2">
     <g id="line2d_2">
      <path d="M 229.321517 669.78 
L 229.321517 12.96 
" clip-path="url(#p600582dee5)" style="fill: none; stroke: #cccccc; stroke-linecap: round"/>
     </g>
     <g id="text_2">
      <!-- 2 -->
      <g style="fill: #262626" transform="translate(225.822142 687.638281) scale(0.11 -0.11)">
       <defs>
        <path id="DejaVuSans-32" d="M 1228 531 
L 3431 531 
L 3431 0 
L 469 0 
L 469 531 
Q 828 903 1448 1529 
Q 2069 2156 2228 2338 
Q 2531 2678 2651 2914 
Q 2772 3150 2772 3378 
Q 2772 3750 2511 3984 
Q 2250 4219 1831 4219 
Q 1534 4219 1204 4116 
Q 875 4013 500 3803 
L 500 4441 
Q 881 4594 1212 4672 
Q 1544 4750 1819 4750 
Q 2544 4750 2975 4387 
Q 3406 4025 3406 3419 
Q 3406 3131 3298 2873 
Q 3191 2616 2906 2266 
Q 2828 2175 2409 1742 
Q 1991 1309 1228 531 
z
" transform="scale(0.015625)"/>
       </defs>
       <use xlink:href="#DejaVuSans-32"/>
      </g>
     </g>
    </g>
    <g id="xtick_3">
     <g id="line2d_3">
      <path d="M 365.079244 669.78 
L 365.079244 12.96 
" clip-path="url(#p600582dee5)" style="fill: none; stroke: #cccccc; stroke-linecap: round"/>
     </g>
     <g id="text_3">
      <!-- 4 -->
      <g style="fill: #262626" transform="translate(361.579869 687.638281) scale(0.11 -0.11)">
       <defs>
        <path id="DejaVuSans-34" d="M 2419 4116 
L 825 1625 
L 2419 1625 
L 2419 4116 
z
M 2253 4666 
L 3047 4666 
L 3047 1625 
L 3713 1625 
L 3713 1100 
L 3047 1100 
L 3047 0 
L 2419 0 
L 2419 1100 
L 313 1100 
L 313 1709 
L 2253 4666 
z
" transform="scale(0.015625)"/>
       </defs>
       <use xlink:href="#DejaVuSans-34"/>
      </g>
     </g>
    </g>
    <g id="xtick_4">
     <g id="line2d_4">
      <path d="M 500.836971 669.78 
L 500.836971 12.96 
" clip-path="url(#p600582dee5)" style="fill: none; stroke: #cccccc; stroke-linecap: round"/>
     </g>
     <g id="text_4">
      <!-- 6 -->
      <g style="fill: #262626" transform="translate(497.337596 687.638281) scale(0.11 -0.11)">
       <defs>
        <path id="DejaVuSans-36" d="M 2113 2584 
Q 1688 2584 1439 2293 
Q 1191 2003 1191 1497 
Q 1191 994 1439 701 
Q 1688 409 2113 409 
Q 2538 409 2786 701 
Q 3034 994 3034 1497 
Q 3034 2003 2786 2293 
Q 2538 2584 2113 2584 
z
M 3366 4563 
L 3366 3988 
Q 3128 4100 2886 4159 
Q 2644 4219 2406 4219 
Q 1781 4219 1451 3797 
Q 1122 3375 1075 2522 
Q 1259 2794 1537 2939 
Q 1816 3084 2150 3084 
Q 2853 3084 3261 2657 
Q 3669 2231 3669 1497 
Q 3669 778 3244 343 
Q 2819 -91 2113 -91 
Q 1303 -91 875 529 
Q 447 1150 447 2328 
Q 447 3434 972 4092 
Q 1497 4750 2381 4750 
Q 2619 4750 2861 4703 
Q 3103 4656 3366 4563 
z
" transform="scale(0.015625)"/>
       </defs>
       <use xlink:href="#DejaVuSans-36"/>
      </g>
     </g>
    </g>
    <g id="xtick_5">
     <g id="line2d_5">
      <path d="M 636.594697 669.78 
L 636.594697 12.96 
" clip-path="url(#p600582dee5)" style="fill: none; stroke: #cccccc; stroke-linecap: round"/>
     </g>
     <g id="text_5">
      <!-- 8 -->
      <g style="fill: #262626" transform="translate(633.095322 687.638281) scale(0.11 -0.11)">
       <defs>
        <path id="DejaVuSans-38" d="M 2034 2216 
Q 1584 2216 1326 1975 
Q 1069 1734 1069 1313 
Q 1069 891 1326 650 
Q 1584 409 2034 409 
Q 2484 409 2743 651 
Q 3003 894 3003 1313 
Q 3003 1734 2745 1975 
Q 2488 2216 2034 2216 
z
M 1403 2484 
Q 997 2584 770 2862 
Q 544 3141 544 3541 
Q 544 4100 942 4425 
Q 1341 4750 2034 4750 
Q 2731 4750 3128 4425 
Q 3525 4100 3525 3541 
Q 3525 3141 3298 2862 
Q 3072 2584 2669 2484 
Q 3125 2378 3379 2068 
Q 3634 1759 3634 1313 
Q 3634 634 3220 271 
Q 2806 -91 2034 -91 
Q 1263 -91 848 271 
Q 434 634 434 1313 
Q 434 1759 690 2068 
Q 947 2378 1403 2484 
z
M 1172 3481 
Q 1172 3119 1398 2916 
Q 1625 2713 2034 2713 
Q 2441 2713 2670 2916 
Q 2900 3119 2900 3481 
Q 2900 3844 2670 4047 
Q 2441 4250 2034 4250 
Q 1625 4250 1398 4047 
Q 1172 3844 1172 3481 
z
" transform="scale(0.015625)"/>
       </defs>
       <use xlink:href="#DejaVuSans-38"/>
      </g>
     </g>
    </g>
    <g id="text_6">
     <!-- Volatility -->
     <g style="fill: #262626" transform="translate(360.594375 703.044062) scale(0.12 -0.12)">
      <defs>
       <path id="DejaVuSans-56" d="M 1831 0 
L 50 4666 
L 709 4666 
L 2188 738 
L 3669 4666 
L 4325 4666 
L 2547 0 
L 1831 0 
z
" transform="scale(0.015625)"/>
       <path id="DejaVuSans-6f" d="M 1959 3097 
Q 1497 3097 1228 2736 
Q 959 2375 959 1747 
Q 959 1119 1226 758 
Q 1494 397 1959 397 
Q 2419 397 2687 759 
Q 2956 1122 2956 1747 
Q 2956 2369 2687 2733 
Q 2419 3097 1959 3097 
z
M 1959 3584 
Q 2709 3584 3137 3096 
Q 3566 2609 3566 1747 
Q 3566 888 3137 398 
Q 2709 -91 1959 -91 
Q 1206 -91 779 398 
Q 353 888 353 1747 
Q 353 2609 779 3096 
Q 1206 3584 1959 3584 
z
" transform="scale(0.015625)"/>
       <path id="DejaVuSans-6c" d="M 603 4863 
L 1178 4863 
L 1178 0 
L 603 0 
L 603 4863 
z
" transform="scale(0.015625)"/>
       <path id="DejaVuSans-61" d="M 2194 1759 
Q 1497 1759 1228 1600 
Q 959 1441 959 1056 
Q 959 750 1161 570 
Q 1363 391 1709 391 
Q 2188 391 2477 730 
Q 2766 1069 2766 1631 
L 2766 1759 
L 2194 1759 
z
M 3341 1997 
L 3341 0 
L 2766 0 
L 2766 531 
Q 2569 213 2275 61 
Q 1981 -91 1556 -91 
Q 1019 -91 701 211 
Q 384 513 384 1019 
Q 384 1609 779 1909 
Q 1175 2209 1959 2209 
L 2766 2209 
L 2766 2266 
Q 2766 2663 2505 2880 
Q 2244 3097 1772 3097 
Q 1472 3097 1187 3025 
Q 903 2953 641 2809 
L 641 3341 
Q 956 3463 1253 3523 
Q 1550 3584 1831 3584 
Q 2591 3584 2966 3190 
Q 3341 2797 3341 1997 
z
" transform="scale(0.015625)"/>
       <path id="DejaVuSans-74" d="M 1172 4494 
L 1172 3500 
L 2356 3500 
L 2356 3053 
L 1172 3053 
L 1172 1153 
Q 1172 725 1289 603 
Q 1406 481 1766 481 
L 2356 481 
L 2356 0 
L 1766 0 
Q 1100 0 847 248 
Q 594 497 594 1153 
L 594 3053 
L 172 3053 
L 172 3500 
L 594 3500 
L 594 4494 
L 1172 4494 
z
" transform="scale(0.015625)"/>
       <path id="DejaVuSans-69" d="M 603 3500 
L 1178 3500 
L 1178 0 
L 603 0 
L 603 3500 
z
M 603 4863 
L 1178 4863 
L 1178 4134 
L 603 4134 
L 603 4863 
z
" transform="scale(0.015625)"/>
       <path id="DejaVuSans-79" d="M 2059 -325 
Q 1816 -950 1584 -1140 
Q 1353 -1331 966 -1331 
L 506 -1331 
L 506 -850 
L 844 -850 
Q 1081 -850 1212 -737 
Q 1344 -625 1503 -206 
L 1606 56 
L 191 3500 
L 800 3500 
L 1894 763 
L 2988 3500 
L 3597 3500 
L 2059 -325 
z
" transform="scale(0.015625)"/>
      </defs>
      <use xlink:href="#DejaVuSans-56"/>
      <use xlink:href="#DejaVuSans-6f" x="60.658203"/>
      <use xlink:href="#DejaVuSans-6c" x="121.839844"/>
      <use xlink:href="#DejaVuSans-61" x="149.623047"/>
      <use xlink:href="#DejaVuSans-74" x="210.902344"/>
      <use xlink:href="#DejaVuSans-69" x="250.111328"/>
      <use xlink:href="#DejaVuSans-6c" x="277.894531"/>
      <use xlink:href="#DejaVuSans-69" x="305.677734"/>
      <use xlink:href="#DejaVuSans-74" x="333.460938"/>
      <use xlink:href="#DejaVuSans-79" x="372.669922"/>
     </g>
    </g>
   </g>
   <g id="matplotlib.axis_2">
    <g id="ytick_1">
     <g id="line2d_6">
      <path d="M 65.97 606.921777 
L 707.04 606.921777 
" clip-path="url(#p600582dee5)" style="fill: none; stroke: #cccccc; stroke-linecap: round"/>
     </g>
     <g id="text_7">
      <!-- −0.5 -->
      <g style="fill: #262626" transform="translate(29.758906 611.100918) scale(0.11 -0.11)">
       <defs>
        <path id="DejaVuSans-2212" d="M 678 2272 
L 4684 2272 
L 4684 1741 
L 678 1741 
L 678 2272 
z
" transform="scale(0.015625)"/>
        <path id="DejaVuSans-2e" d="M 684 794 
L 1344 794 
L 1344 0 
L 684 0 
L 684 794 
z
" transform="scale(0.015625)"/>
        <path id="DejaVuSans-35" d="M 691 4666 
L 3169 4666 
L 3169 4134 
L 1269 4134 
L 1269 2991 
Q 1406 3038 1543 3061 
Q 1681 3084 1819 3084 
Q 2600 3084 3056 2656 
Q 3513 2228 3513 1497 
Q 3513 744 3044 326 
Q 2575 -91 1722 -91 
Q 1428 -91 1123 -41 
Q 819 9 494 109 
L 494 744 
Q 775 591 1075 516 
Q 1375 441 1709 441 
Q 2250 441 2565 725 
Q 2881 1009 2881 1497 
Q 2881 1984 2565 2268 
Q 2250 2553 1709 2553 
Q 1456 2553 1204 2497 
Q 953 2441 691 2322 
L 691 4666 
z
" transform="scale(0.015625)"/>
       </defs>
       <use xlink:href="#DejaVuSans-2212"/>
       <use xlink:href="#DejaVuSans-30" x="83.789062"/>
       <use xlink:href="#DejaVuSans-2e" x="147.412109"/>
       <use xlink:href="#DejaVuSans-35" x="179.199219"/>
      </g>
     </g>
    </g>
    <g id="ytick_2">
     <g id="line2d_7">
      <path d="M 65.97 521.41582 
L 707.04 521.41582 
" clip-path="url(#p600582dee5)" style="fill: none; stroke: #cccccc; stroke-linecap: round"/>
     </g>
     <g id="text_8">
      <!-- 0.0 -->
      <g style="fill: #262626" transform="translate(38.976562 525.594961) scale(0.11 -0.11)">
       <use xlink:href="#DejaVuSans-30"/>
       <use xlink:href="#DejaVuSans-2e" x="63.623047"/>
       <use xlink:href="#DejaVuSans-30" x="95.410156"/>
      </g>
     </g>
    </g>
    <g id="ytick_3">
     <g id="line2d_8">
      <path d="M 65.97 435.909863 
L 707.04 435.909863 
" clip-path="url(#p600582dee5)" style="fill: none; stroke: #cccccc; stroke-linecap: round"/>
     </g>
     <g id="text_9">
      <!-- 0.5 -->
      <g style="fill: #262626" transform="translate(38.976562 440.089003) scale(0.11 -0.11)">
       <use xlink:href="#DejaVuSans-30"/>
       <use xlink:href="#DejaVuSans-2e" x="63.623047"/>
       <use xlink:href="#DejaVuSans-35" x="95.410156"/>
      </g>
     </g>
    </g>
    <g id="ytick_4">
     <g id="line2d_9">
      <path d="M 65.97 350.403905 
L 707.04 350.403905 
" clip-path="url(#p600582dee5)" style="fill: none; stroke: #cccccc; stroke-linecap: round"/>
     </g>
     <g id="text_10">
      <!-- 1.0 -->
      <g style="fill: #262626" transform="translate(38.976562 354.583046) scale(0.11 -0.11)">
       <defs>
        <path id="DejaVuSans-31" d="M 794 531 
L 1825 531 
L 1825 4091 
L 703 3866 
L 703 4441 
L 1819 4666 
L 2450 4666 
L 2450 531 
L 3481 531 
L 3481 0 
L 794 0 
L 794 531 
z
" transform="scale(0.015625)"/>
       </defs>
       <use xlink:href="#DejaVuSans-31"/>
       <use xlink:href="#DejaVuSans-2e" x="63.623047"/>
       <use xlink:href="#DejaVuSans-30" x="95.410156"/>
      </g>
     </g>
    </g>
    <g id="ytick_5">
     <g id="line2d_10">
      <path d="M 65.97 264.897948 
L 707.04 264.897948 
" clip-path="url(#p600582dee5)" style="fill: none; stroke: #cccccc; stroke-linecap: round"/>
     </g>
     <g id="text_11">
      <!-- 1.5 -->
      <g style="fill: #262626" transform="translate(38.976562 269.077089) scale(0.11 -0.11)">
       <use xlink:href="#DejaVuSans-31"/>
       <use xlink:href="#DejaVuSans-2e" x="63.623047"/>
       <use xlink:href="#DejaVuSans-35" x="95.410156"/>
      </g>
     </g>
    </g>
    <g id="ytick_6">
     <g id="line2d_11">
      <path d="M 65.97 179.391991 
L 707.04 179.391991 
" clip-path="url(#p600582dee5)" style="fill: none; stroke: #cccccc; stroke-linecap: round"/>
     </g>
     <g id="text_12">
      <!-- 2.0 -->
      <g style="fill: #262626" transform="translate(38.976562 183.571131) scale(0.11 -0.11)">
       <use xlink:href="#DejaVuSans-32"/>
       <use xlink:href="#DejaVuSans-2e" x="63.623047"/>
       <use xlink:href="#DejaVuSans-30" x="95.410156"/>
      </g>
     </g>
    </g>
    <g id="ytick_7">
     <g id="line2d_12">
      <path d="M 65.97 93.886033 
L 707.04 93.886033 
" clip-path="url(#p600582dee5)" style="fill: none; stroke: #cccccc; stroke-linecap: round"/>
     </g>
     <g id="text_13">
      <!-- 2.5 -->
      <g style="fill: #262626" transform="translate(38.976562 98.065174) scale(0.11 -0.11)">
       <use xlink:href="#DejaVuSans-32"/>
       <use xlink:href="#DejaVuSans-2e" x="63.623047"/>
       <use xlink:href="#DejaVuSans-35" x="95.410156"/>
      </g>
     </g>
    </g>
    <g id="text_14">
     <!-- Return -->
     <g style="fill: #262626" transform="translate(23.263281 361.279688) rotate(-90) scale(0.12 -0.12)">
      <defs>
       <path id="DejaVuSans-52" d="M 2841 2188 
Q 3044 2119 3236 1894 
Q 3428 1669 3622 1275 
L 4263 0 
L 3584 0 
L 2988 1197 
Q 2756 1666 2539 1819 
Q 2322 1972 1947 1972 
L 1259 1972 
L 1259 0 
L 628 0 
L 628 4666 
L 2053 4666 
Q 2853 4666 3247 4331 
Q 3641 3997 3641 3322 
Q 3641 2881 3436 2590 
Q 3231 2300 2841 2188 
z
M 1259 4147 
L 1259 2491 
L 2053 2491 
Q 2509 2491 2742 2702 
Q 2975 2913 2975 3322 
Q 2975 3731 2742 3939 
Q 2509 4147 2053 4147 
L 1259 4147 
z
" transform="scale(0.015625)"/>
       <path id="DejaVuSans-65" d="M 3597 1894 
L 3597 1613 
L 953 1613 
Q 991 1019 1311 708 
Q 1631 397 2203 397 
Q 2534 397 2845 478 
Q 3156 559 3463 722 
L 3463 178 
Q 3153 47 2828 -22 
Q 2503 -91 2169 -91 
Q 1331 -91 842 396 
Q 353 884 353 1716 
Q 353 2575 817 3079 
Q 1281 3584 2069 3584 
Q 2775 3584 3186 3129 
Q 3597 2675 3597 1894 
z
M 3022 2063 
Q 3016 2534 2758 2815 
Q 2500 3097 2075 3097 
Q 1594 3097 1305 2825 
Q 1016 2553 972 2059 
L 3022 2063 
z
" transform="scale(0.015625)"/>
       <path id="DejaVuSans-75" d="M 544 1381 
L 544 3500 
L 1119 3500 
L 1119 1403 
Q 1119 906 1312 657 
Q 1506 409 1894 409 
Q 2359 409 2629 706 
Q 2900 1003 2900 1516 
L 2900 3500 
L 3475 3500 
L 3475 0 
L 2900 0 
L 2900 538 
Q 2691 219 2414 64 
Q 2138 -91 1772 -91 
Q 1169 -91 856 284 
Q 544 659 544 1381 
z
M 1991 3584 
L 1991 3584 
z
" transform="scale(0.015625)"/>
       <path id="DejaVuSans-72" d="M 2631 2963 
Q 2534 3019 2420 3045 
Q 2306 3072 2169 3072 
Q 1681 3072 1420 2755 
Q 1159 2438 1159 1844 
L 1159 0 
L 581 0 
L 581 3500 
L 1159 3500 
L 1159 2956 
Q 1341 3275 1631 3429 
Q 1922 3584 2338 3584 
Q 2397 3584 2469 3576 
Q 2541 3569 2628 3553 
L 2631 2963 
z
" transform="scale(0.015625)"/>
       <path id="DejaVuSans-6e" d="M 3513 2113 
L 3513 0 
L 2938 0 
L 2938 2094 
Q 2938 2591 2744 2837 
Q 2550 3084 2163 3084 
Q 1697 3084 1428 2787 
Q 1159 2491 1159 1978 
L 1159 0 
L 581 0 
L 581 3500 
L 1159 3500 
L 1159 2956 
Q 1366 3272 1645 3428 
Q 1925 3584 2291 3584 
Q 2894 3584 3203 3211 
Q 3513 2838 3513 2113 
z
" transform="scale(0.015625)"/>
      </defs>
      <use xlink:href="#DejaVuSans-52"/>
      <use xlink:href="#DejaVuSans-65" x="64.982422"/>
      <use xlink:href="#DejaVuSans-74" x="126.505859"/>
      <use xlink:href="#DejaVuSans-75" x="165.714844"/>
      <use xlink:href="#DejaVuSans-72" x="229.09375"/>
      <use xlink:href="#DejaVuSans-6e" x="268.457031"/>
     </g>
    </g>
   </g>
   <g id="PathCollection_1">
    <defs>
     <path id="mb38c648c83" d="M 0 2.738613 
C 0.726289 2.738613 1.422928 2.450055 1.936492 1.936492 
C 2.450055 1.422928 2.738613 0.726289 2.738613 0 
C 2.738613 -0.726289 2.450055 -1.422928 1.936492 -1.936492 
C 1.422928 -2.450055 0.726289 -2.738613 0 -2.738613 
C -0.726289 -2.738613 -1.422928 -2.450055 -1.936492 -1.936492 
C -2.450055 -1.422928 -2.738613 -0.726289 -2.738613 0 
C -2.738613 0.726289 -2.450055 1.422928 -1.936492 1.936492 
C -1.422928 2.450055 -0.726289 2.738613 0 2.738613 
z
" style="stroke: #1a1a1a"/>
    </defs>
    <g clip-path="url(#p600582dee5)">
     <use xlink:href="#mb38c648c83" x="124.440537" y="505.018655" style="fill: #1a1a1a; stroke: #1a1a1a"/>
     <use xlink:href="#mb38c648c83" x="132.487003" y="541.597888" style="fill: #1a1a1a; stroke: #1a1a1a"/>
     <use xlink:href="#mb38c648c83" x="127.609644" y="511.256512" style="fill: #1a1a1a; stroke: #1a1a1a"/>
     <use xlink:href="#mb38c648c83" x="144.112887" y="491.910235" style="fill: #1a1a1a; stroke: #1a1a1a"/>
     <use xlink:href="#mb38c648c83" x="145.4302" y="555.980272" style="fill: #1a1a1a; stroke: #1a1a1a"/>
     <use xlink:href="#mb38c648c83" x="151.016393" y="526.593504" style="fill: #1a1a1a; stroke: #1a1a1a"/>
     <use xlink:href="#mb38c648c83" x="146.719534" y="532.584541" style="fill: #1a1a1a; stroke: #1a1a1a"/>
     <use xlink:href="#mb38c648c83" x="135.9603" y="489.740887" style="fill: #1a1a1a; stroke: #1a1a1a"/>
     <use xlink:href="#mb38c648c83" x="655.189974" y="639.924545" style="fill: #1a1a1a; stroke: #1a1a1a"/>
     <use xlink:href="#mb38c648c83" x="147.967621" y="572.636556" style="fill: #1a1a1a; stroke: #1a1a1a"/>
     <use xlink:href="#mb38c648c83" x="140.797059" y="580.292907" style="fill: #1a1a1a; stroke: #1a1a1a"/>
     <use xlink:href="#mb38c648c83" x="138.11966" y="542.997677" style="fill: #1a1a1a; stroke: #1a1a1a"/>
     <use xlink:href="#mb38c648c83" x="149.562361" y="557.420576" style="fill: #1a1a1a; stroke: #1a1a1a"/>
     <use xlink:href="#mb38c648c83" x="95.155259" y="521.422267" style="fill: #1a1a1a; stroke: #1a1a1a"/>
     <use xlink:href="#mb38c648c83" x="144.676952" y="541.623368" style="fill: #1a1a1a; stroke: #1a1a1a"/>
     <use xlink:href="#mb38c648c83" x="125.777959" y="473.920676" style="fill: #1a1a1a; stroke: #1a1a1a"/>
     <use xlink:href="#mb38c648c83" x="144.564663" y="528.410645" style="fill: #1a1a1a; stroke: #1a1a1a"/>
     <use xlink:href="#mb38c648c83" x="132.330297" y="537.573112" style="fill: #1a1a1a; stroke: #1a1a1a"/>
     <use xlink:href="#mb38c648c83" x="154.518757" y="542.534034" style="fill: #1a1a1a; stroke: #1a1a1a"/>
     <use xlink:href="#mb38c648c83" x="162.881343" y="540.710596" style="fill: #1a1a1a; stroke: #1a1a1a"/>
     <use xlink:href="#mb38c648c83" x="143.244725" y="541.349462" style="fill: #1a1a1a; stroke: #1a1a1a"/>
    </g>
   </g>
   <g id="PathCollection_2">
    <defs>
     <path id="m3381af7e2e" d="M 0 -5 
L -1.12257 -1.545085 
L -4.755283 -1.545085 
L -1.816356 0.59017 
L -2.938926 4.045085 
L -0 1.90983 
L 2.938926 4.045085 
L 1.816356 0.59017 
L 4.755283 -1.545085 
L 1.12257 -1.545085 
z
" style="stroke: #c44e52"/>
    </defs>
    <g clip-path="url(#p600582dee5)">
     <use xlink:href="#m3381af7e2e" x="112.200539" y="450.271652" style="fill: #c44e52; stroke: #c44e52"/>
    </g>
   </g>
   <g id="PathCollection_3">
    <defs>
     <path id="m8c12014642" d="M 0 -5 
L -1.12257 -1.545085 
L -4.755283 -1.545085 
L -1.816356 0.59017 
L -2.938926 4.045085 
L -0 1.90983 
L 2.938926 4.045085 
L 1.816356 0.59017 
L 4.755283 -1.545085 
L 1.12257 -1.545085 
z
" style="stroke: #55a868"/>
    </defs>
    <g clip-path="url(#p600582dee5)">
     <use xlink:href="#m8c12014642" x="170.954877" y="244.068709" style="fill: #55a868; stroke: #55a868"/>
    </g>
   </g>
   <g id="PathCollection_4">
    <defs>
     <path id="m3890fe9df0" d="M 0 2.236068 
C 0.593012 2.236068 1.161816 2.000462 1.581139 1.581139 
C 2.000462 1.161816 2.236068 0.593012 2.236068 0 
C 2.236068 -0.593012 2.000462 -1.161816 1.581139 -1.581139 
C 1.161816 -2.000462 0.593012 -2.236068 0 -2.236068 
C -0.593012 -2.236068 -1.161816 -2.000462 -1.581139 -1.581139 
C -2.000462 -1.161816 -2.236068 -0.593012 -2.236068 0 
C -2.236068 0.593012 -2.000462 1.161816 -1.581139 1.581139 
C -1.161816 2.000462 -0.593012 2.236068 0 2.236068 
z
" style="stroke: #4c72b0"/>
    </defs>
    <g clip-path="url(#p600582dee5)">
     <use xlink:href="#m3890fe9df0" x="124.440537" y="505.018655" style="fill: #4c72b0; stroke: #4c72b0"/>
    </g>
   </g>
   <g id="PathCollection_5">
    <defs>
     <path id="m50ebce13e8" d="M 0 2.236068 
C 0.593012 2.236068 1.161816 2.000462 1.581139 1.581139 
C 2.000462 1.161816 2.236068 0.593012 2.236068 0 
C 2.236068 -0.593012 2.000462 -1.161816 1.581139 -1.581139 
C 1.161816 -2.000462 0.593012 -2.236068 0 -2.236068 
C -0.593012 -2.236068 -1.161816 -2.000462 -1.581139 -1.581139 
C -2.000462 -1.161816 -2.236068 -0.593012 -2.236068 0 
C -2.236068 0.593012 -2.000462 1.161816 -1.581139 1.581139 
C -1.161816 2.000462 -0.593012 2.236068 0 2.236068 
z
" style="stroke: #dd8452"/>
    </defs>
    <g clip-path="url(#p600582dee5)">
     <use xlink:href="#m50ebce13e8" x="132.487003" y="541.597888" style="fill: #dd8452; stroke: #dd8452"/>
    </g>
   </g>
   <g id="PathCollection_6">
    <defs>
     <path id="ma008665b59" d="M 0 2.236068 
C 0.593012 2.236068 1.161816 2.000462 1.581139 1.581139 
C 2.000462 1.161816 2.236068 0.593012 2.236068 0 
C 2.236068 -0.593012 2.000462 -1.161816 1.581139 -1.581139 
C 1.161816 -2.000462 0.593012 -2.236068 0 -2.236068 
C -0.593012 -2.236068 -1.161816 -2.000462 -1.581139 -1.581139 
C -2.000462 -1.161816 -2.236068 -0.593012 -2.236068 0 
C -2.236068 0.593012 -2.000462 1.161816 -1.581139 1.581139 
C -1.161816 2.000462 -0.593012 2.236068 0 2.236068 
z
" style="stroke: #55a868"/>
    </defs>
    <g clip-path="url(#p600582dee5)">
     <use xlink:href="#ma008665b59" x="127.609644" y="511.256512" style="fill: #55a868; stroke: #55a868"/>
    </g>
   </g>
   <g id="PathCollection_7">
    <defs>
     <path id="m0fae5ea12b" d="M 0 2.236068 
C 0.593012 2.236068 1.161816 2.000462 1.581139 1.581139 
C 2.000462 1.161816 2.236068 0.593012 2.236068 0 
C 2.236068 -0.593012 2.000462 -1.161816 1.581139 -1.581139 
C 1.161816 -2.000462 0.593012 -2.236068 0 -2.236068 
C -0.593012 -2.236068 -1.161816 -2.000462 -1.581139 -1.581139 
C -2.000462 -1.161816 -2.236068 -0.593012 -2.236068 0 
C -2.236068 0.593012 -2.000462 1.161816 -1.581139 1.581139 
C -1.161816 2.000462 -0.593012 2.236068 0 2.236068 
z
" style="stroke: #c44e52"/>
    </defs>
    <g clip-path="url(#p600582dee5)">
     <use xlink:href="#m0fae5ea12b" x="144.112887" y="491.910235" style="fill: #c44e52; stroke: #c44e52"/>
    </g>
   </g>
   <g id="PathCollection_8">
    <defs>
     <path id="m0d513053a4" d="M 0 2.236068 
C 0.593012 2.236068 1.161816 2.000462 1.581139 1.581139 
C 2.000462 1.161816 2.236068 0.593012 2.236068 0 
C 2.236068 -0.593012 2.000462 -1.161816 1.581139 -1.581139 
C 1.161816 -2.000462 0.593012 -2.236068 0 -2.236068 
C -0.593012 -2.236068 -1.161816 -2.000462 -1.581139 -1.581139 
C -2.000462 -1.161816 -2.236068 -0.593012 -2.236068 0 
C -2.236068 0.593012 -2.000462 1.161816 -1.581139 1.581139 
C -1.161816 2.000462 -0.593012 2.236068 0 2.236068 
z
" style="stroke: #8172b3"/>
    </defs>
    <g clip-path="url(#p600582dee5)">
     <use xlink:href="#m0d513053a4" x="145.4302" y="555.980272" style="fill: #8172b3; stroke: #8172b3"/>
    </g>
   </g>
   <g id="PathCollection_9">
    <defs>
     <path id="m40bf355db1" d="M 0 2.236068 
C 0.593012 2.236068 1.161816 2.000462 1.581139 1.581139 
C 2.000462 1.161816 2.236068 0.593012 2.236068 0 
C 2.236068 -0.593012 2.000462 -1.161816 1.581139 -1.581139 
C 1.161816 -2.000462 0.593012 -2.236068 0 -2.236068 
C -0.593012 -2.236068 -1.161816 -2.000462 -1.581139 -1.581139 
C -2.000462 -1.161816 -2.236068 -0.593012 -2.236068 0 
C -2.236068 0.593012 -2.000462 1.161816 -1.581139 1.581139 
C -1.161816 2.000462 -0.593012 2.236068 0 2.236068 
z
" style="stroke: #937860"/>
    </defs>
    <g clip-path="url(#p600582dee5)">
     <use xlink:href="#m40bf355db1" x="151.016393" y="526.593504" style="fill: #937860; stroke: #937860"/>
    </g>
   </g>
   <g id="PathCollection_10">
    <defs>
     <path id="m576351823a" d="M 0 2.236068 
C 0.593012 2.236068 1.161816 2.000462 1.581139 1.581139 
C 2.000462 1.161816 2.236068 0.593012 2.236068 0 
C 2.236068 -0.593012 2.000462 -1.161816 1.581139 -1.581139 
C 1.161816 -2.000462 0.593012 -2.236068 0 -2.236068 
C -0.593012 -2.236068 -1.161816 -2.000462 -1.581139 -1.581139 
C -2.000462 -1.161816 -2.236068 -0.593012 -2.236068 0 
C -2.236068 0.593012 -2.000462 1.161816 -1.581139 1.581139 
C -1.161816 2.000462 -0.593012 2.236068 0 2.236068 
z
" style="stroke: #da8bc3"/>
    </defs>
    <g clip-path="url(#p600582dee5)">
     <use xlink:href="#m576351823a" x="146.719534" y="532.584541" style="fill: #da8bc3; stroke: #da8bc3"/>
    </g>
   </g>
   <g id="PathCollection_11">
    <defs>
     <path id="m9f9a641360" d="M 0 2.236068 
C 0.593012 2.236068 1.161816 2.000462 1.581139 1.581139 
C 2.000462 1.161816 2.236068 0.593012 2.236068 0 
C 2.236068 -0.593012 2.000462 -1.161816 1.581139 -1.581139 
C 1.161816 -2.000462 0.593012 -2.236068 0 -2.236068 
C -0.593012 -2.236068 -1.161816 -2.000462 -1.581139 -1.581139 
C -2.000462 -1.161816 -2.236068 -0.593012 -2.236068 0 
C -2.236068 0.593012 -2.000462 1.161816 -1.581139 1.581139 
C -1.161816 2.000462 -0.593012 2.236068 0 2.236068 
z
" style="stroke: #8c8c8c"/>
    </defs>
    <g clip-path="url(#p600582dee5)">
     <use xlink:href="#m9f9a641360" x="135.9603" y="489.740887" style="fill: #8c8c8c; stroke: #8c8c8c"/>
    </g>
   </g>
   <g id="PathCollection_12">
    <defs>
     <path id="m525d4a5ecd" d="M 0 2.236068 
C 0.593012 2.236068 1.161816 2.000462 1.581139 1.581139 
C 2.000462 1.161816 2.236068 0.593012 2.236068 0 
C 2.236068 -0.593012 2.000462 -1.161816 1.581139 -1.581139 
C 1.161816 -2.000462 0.593012 -2.236068 0 -2.236068 
C -0.593012 -2.236068 -1.161816 -2.000462 -1.581139 -1.581139 
C -2.000462 -1.161816 -2.236068 -0.593012 -2.236068 0 
C -2.236068 0.593012 -2.000462 1.161816 -1.581139 1.581139 
C -1.161816 2.000462 -0.593012 2.236068 0 2.236068 
z
" style="stroke: #ccb974"/>
    </defs>
    <g clip-path="url(#p600582dee5)">
     <use xlink:href="#m525d4a5ecd" x="655.189974" y="639.924545" style="fill: #ccb974; stroke: #ccb974"/>
    </g>
   </g>
   <g id="PathCollection_13">
    <defs>
     <path id="mb716456894" d="M 0 2.236068 
C 0.593012 2.236068 1.161816 2.000462 1.581139 1.581139 
C 2.000462 1.161816 2.236068 0.593012 2.236068 0 
C 2.236068 -0.593012 2.000462 -1.161816 1.581139 -1.581139 
C 1.161816 -2.000462 0.593012 -2.236068 0 -2.236068 
C -0.593012 -2.236068 -1.161816 -2.000462 -1.581139 -1.581139 
C -2.000462 -1.161816 -2.236068 -0.593012 -2.236068 0 
C -2.236068 0.593012 -2.000462 1.161816 -1.581139 1.581139 
C -1.161816 2.000462 -0.593012 2.236068 0 2.236068 
z
" style="stroke: #64b5cd"/>
    </defs>
    <g clip-path="url(#p600582dee5)">
     <use xlink:href="#mb716456894" x="147.967621" y="572.636556" style="fill: #64b5cd; stroke: #64b5cd"/>
    </g>
   </g>
   <g id="PathCollection_14">
    <g clip-path="url(#p600582dee5)">
     <use xlink:href="#m3890fe9df0" x="140.797059" y="580.292907" style="fill: #4c72b0; stroke: #4c72b0"/>
    </g>
   </g>
   <g id="PathCollection_15">
    <g clip-path="url(#p600582dee5)">
     <use xlink:href="#m50ebce13e8" x="138.11966" y="542.997677" style="fill: #dd8452; stroke: #dd8452"/>
    </g>
   </g>
   <g id="PathCollection_16">
    <g clip-path="url(#p600582dee5)">
     <use xlink:href="#ma008665b59" x="149.562361" y="557.420576" style="fill: #55a868; stroke: #55a868"/>
    </g>
   </g>
   <g id="PathCollection_17">
    <g clip-path="url(#p600582dee5)">
     <use xlink:href="#m0fae5ea12b" x="95.155259" y="521.422267" style="fill: #c44e52; stroke: #c44e52"/>
    </g>
   </g>
   <g id="PathCollection_18">
    <g clip-path="url(#p600582dee5)">
     <use xlink:href="#m0d513053a4" x="144.676952" y="541.623368" style="fill: #8172b3; stroke: #8172b3"/>
    </g>
   </g>
   <g id="PathCollection_19">
    <g clip-path="url(#p600582dee5)">
     <use xlink:href="#m40bf355db1" x="125.777959" y="473.920676" style="fill: #937860; stroke: #937860"/>
    </g>
   </g>
   <g id="PathCollection_20">
    <g clip-path="url(#p600582dee5)">
     <use xlink:href="#m576351823a" x="144.564663" y="528.410645" style="fill: #da8bc3; stroke: #da8bc3"/>
    </g>
   </g>
   <g id="PathCollection_21">
    <g clip-path="url(#p600582dee5)">
     <use xlink:href="#m9f9a641360" x="132.330297" y="537.573112" style="fill: #8c8c8c; stroke: #8c8c8c"/>
    </g>
   </g>
   <g id="PathCollection_22">
    <g clip-path="url(#p600582dee5)">
     <use xlink:href="#m525d4a5ecd" x="154.518757" y="542.534034" style="fill: #ccb974; stroke: #ccb974"/>
    </g>
   </g>
   <g id="PathCollection_23">
    <g clip-path="url(#p600582dee5)">
     <use xlink:href="#mb716456894" x="162.881343" y="540.710596" style="fill: #64b5cd; stroke: #64b5cd"/>
    </g>
   </g>
   <g id="PathCollection_24">
    <g clip-path="url(#p600582dee5)">
     <use xlink:href="#m3890fe9df0" x="143.244725" y="541.349462" style="fill: #4c72b0; stroke: #4c72b0"/>
    </g>
   </g>
   <g id="patch_3">
    <path d="M 93.563791 589.820586 
L 169.588118 589.820586 
L 169.588118 470.112246 
L 93.563791 470.112246 
L 93.563791 589.820586 
z
" clip-path="url(#p600582dee5)" style="fill: none; stroke: #808080; stroke-linejoin: miter"/>
   </g>
   <g id="line2d_13">
    <path d="M 95.109545 521.126908 
L 95.581825 516.295329 
L 96.556039 511.463759 
L 97.690478 506.632188 
L 98.883609 501.800618 
L 100.103385 496.969048 
L 101.337274 492.137478 
L 102.579482 487.305907 
L 103.82699 482.474337 
L 105.078075 477.642767 
L 106.331686 472.811196 
L 107.587145 467.979626 
L 108.843996 463.148056 
L 110.101923 458.316485 
L 111.360716 453.484927 
L 112.624919 448.653354 
L 113.896882 443.821846 
L 115.175264 438.990276 
L 116.458976 434.158706 
L 117.74717 429.327135 
L 119.039166 424.495565 
L 120.334413 419.663995 
L 121.632461 414.832424 
L 122.93294 410.000854 
L 124.235539 405.169284 
L 125.54 400.337713 
L 126.846103 395.506143 
L 128.153663 390.674573 
L 129.462532 385.842943 
L 130.776943 381.011334 
L 132.100225 376.179764 
L 133.431509 371.348194 
L 134.770019 366.516624 
L 136.115073 361.685053 
L 137.46607 356.853483 
L 138.822477 352.021913 
L 140.183822 347.190342 
L 141.549685 342.358772 
L 142.919691 337.527202 
L 144.293504 332.695631 
L 145.670823 327.864061 
L 147.051377 323.032491 
L 148.434922 318.200921 
L 149.821238 313.36935 
L 151.210141 308.537804 
L 152.605707 303.706244 
L 154.010533 298.874674 
L 155.423986 294.043104 
L 156.845486 289.211534 
L 158.275514 284.379968 
L 159.717665 279.548387 
L 161.171604 274.716817 
L 162.636592 269.885247 
L 164.111938 265.053676 
L 165.603184 260.222846 
L 167.144091 255.390587 
L 168.737391 250.559016 
L 170.380084 245.727446 
L 172.06907 240.895876 
L 173.801425 236.064306 
L 175.574137 231.233142 
L 177.40414 226.40138 
L 179.304551 221.569809 
L 181.270914 216.738239 
L 183.302919 211.907452 
L 185.457935 207.076582 
L 187.798061 202.244578 
L 190.332254 197.413008 
L 193.046098 192.581437 
L 195.991214 187.750259 
L 199.338334 182.918748 
L 203.114126 178.087178 
L 207.2758 173.255607 
L 211.782611 168.424037 
L 216.611764 163.592593 
L 221.78198 158.761151 
L 227.259107 153.92958 
L 233.006596 149.09801 
L 238.992394 144.26644 
L 245.46764 139.43453 
L 253.972144 134.602778 
L 264.757522 129.771269 
L 277.509919 124.9397 
L 292.340792 120.10819 
L 309.651795 115.276641 
L 328.938792 110.445079 
L 349.760179 105.613509 
L 371.771541 100.781938 
L 394.712061 95.950368 
L 418.384933 91.118798 
L 442.641193 86.287227 
L 467.36729 81.455657 
L 492.475867 76.624087 
L 517.894023 71.792695 
L 543.578399 66.961125 
L 569.481769 62.129555 
L 595.570227 57.297985 
L 621.816351 52.466415 
L 648.198439 47.634813 
L 677.900455 42.815455 
" clip-path="url(#p600582dee5)" style="fill: none; stroke: #4c72b0; stroke-width: 1.5; stroke-linecap: round"/>
   </g>
   <g id="patch_4">
    <path d="M 65.97 669.78 
L 65.97 12.96 
" style="fill: none; stroke: #cccccc; stroke-width: 1.25; stroke-linejoin: miter; stroke-linecap: square"/>
   </g>
   <g id="patch_5">
    <path d="M 707.04 669.78 
L 707.04 12.96 
" style="fill: none; stroke: #cccccc; stroke-width: 1.25; stroke-linejoin: miter; stroke-linecap: square"/>
   </g>
   <g id="patch_6">
    <path d="M 65.97 669.78 
L 707.04 669.78 
" style="fill: none; stroke: #cccccc; stroke-width: 1.25; stroke-linejoin: miter; stroke-linecap: square"/>
   </g>
   <g id="patch_7">
    <path d="M 65.97 12.96 
L 707.04 12.96 
" style="fill: none; stroke: #cccccc; stroke-width: 1.25; stroke-linejoin: miter; stroke-linecap: square"/>
   </g>
   <g id="text_15">
    <!-- BTC -->
    <g style="fill: #262626" transform="translate(125.440537 504.018655) scale(0.06 -0.06)">
     <defs>
      <path id="DejaVuSans-42" d="M 1259 2228 
L 1259 519 
L 2272 519 
Q 2781 519 3026 730 
Q 3272 941 3272 1375 
Q 3272 1813 3026 2020 
Q 2781 2228 2272 2228 
L 1259 2228 
z
M 1259 4147 
L 1259 2741 
L 2194 2741 
Q 2656 2741 2882 2914 
Q 3109 3088 3109 3444 
Q 3109 3797 2882 3972 
Q 2656 4147 2194 4147 
L 1259 4147 
z
M 628 4666 
L 2241 4666 
Q 2963 4666 3353 4366 
Q 3744 4066 3744 3513 
Q 3744 3084 3544 2831 
Q 3344 2578 2956 2516 
Q 3422 2416 3680 2098 
Q 3938 1781 3938 1306 
Q 3938 681 3513 340 
Q 3088 0 2303 0 
L 628 0 
L 628 4666 
z
" transform="scale(0.015625)"/>
      <path id="DejaVuSans-54" d="M -19 4666 
L 3928 4666 
L 3928 4134 
L 2272 4134 
L 2272 0 
L 1638 0 
L 1638 4134 
L -19 4134 
L -19 4666 
z
" transform="scale(0.015625)"/>
      <path id="DejaVuSans-43" d="M 4122 4306 
L 4122 3641 
Q 3803 3938 3442 4084 
Q 3081 4231 2675 4231 
Q 1875 4231 1450 3742 
Q 1025 3253 1025 2328 
Q 1025 1406 1450 917 
Q 1875 428 2675 428 
Q 3081 428 3442 575 
Q 3803 722 4122 1019 
L 4122 359 
Q 3791 134 3420 21 
Q 3050 -91 2638 -91 
Q 1578 -91 968 557 
Q 359 1206 359 2328 
Q 359 3453 968 4101 
Q 1578 4750 2638 4750 
Q 3056 4750 3426 4639 
Q 3797 4528 4122 4306 
z
" transform="scale(0.015625)"/>
     </defs>
     <use xlink:href="#DejaVuSans-42"/>
     <use xlink:href="#DejaVuSans-54" x="68.603516"/>
     <use xlink:href="#DejaVuSans-43" x="123.8125"/>
    </g>
   </g>
   <g id="text_16">
    <!-- ETH -->
    <g style="fill: #262626" transform="translate(133.487003 540.597888) scale(0.06 -0.06)">
     <defs>
      <path id="DejaVuSans-45" d="M 628 4666 
L 3578 4666 
L 3578 4134 
L 1259 4134 
L 1259 2753 
L 3481 2753 
L 3481 2222 
L 1259 2222 
L 1259 531 
L 3634 531 
L 3634 0 
L 628 0 
L 628 4666 
z
" transform="scale(0.015625)"/>
      <path id="DejaVuSans-48" d="M 628 4666 
L 1259 4666 
L 1259 2753 
L 3553 2753 
L 3553 4666 
L 4184 4666 
L 4184 0 
L 3553 0 
L 3553 2222 
L 1259 2222 
L 1259 0 
L 628 0 
L 628 4666 
z
" transform="scale(0.015625)"/>
     </defs>
     <use xlink:href="#DejaVuSans-45"/>
     <use xlink:href="#DejaVuSans-54" x="63.183594"/>
     <use xlink:href="#DejaVuSans-48" x="124.267578"/>
    </g>
   </g>
   <g id="text_17">
    <!-- BNB -->
    <g style="fill: #262626" transform="translate(128.609644 510.256512) scale(0.06 -0.06)">
     <defs>
      <path id="DejaVuSans-4e" d="M 628 4666 
L 1478 4666 
L 3547 763 
L 3547 4666 
L 4159 4666 
L 4159 0 
L 3309 0 
L 1241 3903 
L 1241 0 
L 628 0 
L 628 4666 
z
" transform="scale(0.015625)"/>
     </defs>
     <use xlink:href="#DejaVuSans-42"/>
     <use xlink:href="#DejaVuSans-4e" x="68.603516"/>
     <use xlink:href="#DejaVuSans-42" x="143.408203"/>
    </g>
   </g>
   <g id="text_18">
    <!-- XRP -->
    <g style="fill: #262626" transform="translate(145.112887 490.910235) scale(0.06 -0.06)">
     <defs>
      <path id="DejaVuSans-58" d="M 403 4666 
L 1081 4666 
L 2241 2931 
L 3406 4666 
L 4084 4666 
L 2584 2425 
L 4184 0 
L 3506 0 
L 2194 1984 
L 872 0 
L 191 0 
L 1856 2491 
L 403 4666 
z
" transform="scale(0.015625)"/>
      <path id="DejaVuSans-50" d="M 1259 4147 
L 1259 2394 
L 2053 2394 
Q 2494 2394 2734 2622 
Q 2975 2850 2975 3272 
Q 2975 3691 2734 3919 
Q 2494 4147 2053 4147 
L 1259 4147 
z
M 628 4666 
L 2053 4666 
Q 2838 4666 3239 4311 
Q 3641 3956 3641 3272 
Q 3641 2581 3239 2228 
Q 2838 1875 2053 1875 
L 1259 1875 
L 1259 0 
L 628 0 
L 628 4666 
z
" transform="scale(0.015625)"/>
     </defs>
     <use xlink:href="#DejaVuSans-58"/>
     <use xlink:href="#DejaVuSans-52" x="68.505859"/>
     <use xlink:href="#DejaVuSans-50" x="137.988281"/>
    </g>
   </g>
   <g id="text_19">
    <!-- ADA -->
    <g style="fill: #262626" transform="translate(146.4302 554.980272) scale(0.06 -0.06)">
     <defs>
      <path id="DejaVuSans-41" d="M 2188 4044 
L 1331 1722 
L 3047 1722 
L 2188 4044 
z
M 1831 4666 
L 2547 4666 
L 4325 0 
L 3669 0 
L 3244 1197 
L 1141 1197 
L 716 0 
L 50 0 
L 1831 4666 
z
" transform="scale(0.015625)"/>
      <path id="DejaVuSans-44" d="M 1259 4147 
L 1259 519 
L 2022 519 
Q 2988 519 3436 956 
Q 3884 1394 3884 2338 
Q 3884 3275 3436 3711 
Q 2988 4147 2022 4147 
L 1259 4147 
z
M 628 4666 
L 1925 4666 
Q 3281 4666 3915 4102 
Q 4550 3538 4550 2338 
Q 4550 1131 3912 565 
Q 3275 0 1925 0 
L 628 0 
L 628 4666 
z
" transform="scale(0.015625)"/>
     </defs>
     <use xlink:href="#DejaVuSans-41"/>
     <use xlink:href="#DejaVuSans-44" x="68.408203"/>
     <use xlink:href="#DejaVuSans-41" x="143.660156"/>
    </g>
   </g>
   <g id="text_20">
    <!-- SOL -->
    <g style="fill: #262626" transform="translate(152.016393 525.593504) scale(0.06 -0.06)">
     <defs>
      <path id="DejaVuSans-53" d="M 3425 4513 
L 3425 3897 
Q 3066 4069 2747 4153 
Q 2428 4238 2131 4238 
Q 1616 4238 1336 4038 
Q 1056 3838 1056 3469 
Q 1056 3159 1242 3001 
Q 1428 2844 1947 2747 
L 2328 2669 
Q 3034 2534 3370 2195 
Q 3706 1856 3706 1288 
Q 3706 609 3251 259 
Q 2797 -91 1919 -91 
Q 1588 -91 1214 -16 
Q 841 59 441 206 
L 441 856 
Q 825 641 1194 531 
Q 1563 422 1919 422 
Q 2459 422 2753 634 
Q 3047 847 3047 1241 
Q 3047 1584 2836 1778 
Q 2625 1972 2144 2069 
L 1759 2144 
Q 1053 2284 737 2584 
Q 422 2884 422 3419 
Q 422 4038 858 4394 
Q 1294 4750 2059 4750 
Q 2388 4750 2728 4690 
Q 3069 4631 3425 4513 
z
" transform="scale(0.015625)"/>
      <path id="DejaVuSans-4f" d="M 2522 4238 
Q 1834 4238 1429 3725 
Q 1025 3213 1025 2328 
Q 1025 1447 1429 934 
Q 1834 422 2522 422 
Q 3209 422 3611 934 
Q 4013 1447 4013 2328 
Q 4013 3213 3611 3725 
Q 3209 4238 2522 4238 
z
M 2522 4750 
Q 3503 4750 4090 4092 
Q 4678 3434 4678 2328 
Q 4678 1225 4090 567 
Q 3503 -91 2522 -91 
Q 1538 -91 948 565 
Q 359 1222 359 2328 
Q 359 3434 948 4092 
Q 1538 4750 2522 4750 
z
" transform="scale(0.015625)"/>
      <path id="DejaVuSans-4c" d="M 628 4666 
L 1259 4666 
L 1259 531 
L 3531 531 
L 3531 0 
L 628 0 
L 628 4666 
z
" transform="scale(0.015625)"/>
     </defs>
     <use xlink:href="#DejaVuSans-53"/>
     <use xlink:href="#DejaVuSans-4f" x="63.476562"/>
     <use xlink:href="#DejaVuSans-4c" x="142.1875"/>
    </g>
   </g>
   <g id="text_21">
    <!-- DOGE -->
    <g style="fill: #262626" transform="translate(147.719534 531.584541) scale(0.06 -0.06)">
     <defs>
      <path id="DejaVuSans-47" d="M 3809 666 
L 3809 1919 
L 2778 1919 
L 2778 2438 
L 4434 2438 
L 4434 434 
Q 4069 175 3628 42 
Q 3188 -91 2688 -91 
Q 1594 -91 976 548 
Q 359 1188 359 2328 
Q 359 3472 976 4111 
Q 1594 4750 2688 4750 
Q 3144 4750 3555 4637 
Q 3966 4525 4313 4306 
L 4313 3634 
Q 3963 3931 3569 4081 
Q 3175 4231 2741 4231 
Q 1884 4231 1454 3753 
Q 1025 3275 1025 2328 
Q 1025 1384 1454 906 
Q 1884 428 2741 428 
Q 3075 428 3337 486 
Q 3600 544 3809 666 
z
" transform="scale(0.015625)"/>
     </defs>
     <use xlink:href="#DejaVuSans-44"/>
     <use xlink:href="#DejaVuSans-4f" x="77.001953"/>
     <use xlink:href="#DejaVuSans-47" x="155.712891"/>
     <use xlink:href="#DejaVuSans-45" x="233.203125"/>
    </g>
   </g>
   <g id="text_22">
    <!-- TRX -->
    <g style="fill: #262626" transform="translate(136.9603 488.740887) scale(0.06 -0.06)">
     <use xlink:href="#DejaVuSans-54"/>
     <use xlink:href="#DejaVuSans-52" x="61.083984"/>
     <use xlink:href="#DejaVuSans-58" x="130.566406"/>
    </g>
   </g>
   <g id="text_23">
    <!-- TON -->
    <g style="fill: #262626" transform="translate(656.189974 638.924545) scale(0.06 -0.06)">
     <use xlink:href="#DejaVuSans-54"/>
     <use xlink:href="#DejaVuSans-4f" x="61.083984"/>
     <use xlink:href="#DejaVuSans-4e" x="139.794922"/>
    </g>
   </g>
   <g id="text_24">
    <!-- MATIC -->
    <g style="fill: #262626" transform="translate(148.967621 571.636556) scale(0.06 -0.06)">
     <defs>
      <path id="DejaVuSans-4d" d="M 628 4666 
L 1569 4666 
L 2759 1491 
L 3956 4666 
L 4897 4666 
L 4897 0 
L 4281 0 
L 4281 4097 
L 3078 897 
L 2444 897 
L 1241 4097 
L 1241 0 
L 628 0 
L 628 4666 
z
" transform="scale(0.015625)"/>
      <path id="DejaVuSans-49" d="M 628 4666 
L 1259 4666 
L 1259 0 
L 628 0 
L 628 4666 
z
" transform="scale(0.015625)"/>
     </defs>
     <use xlink:href="#DejaVuSans-4d"/>
     <use xlink:href="#DejaVuSans-41" x="86.279297"/>
     <use xlink:href="#DejaVuSans-54" x="146.9375"/>
     <use xlink:href="#DejaVuSans-49" x="208.021484"/>
     <use xlink:href="#DejaVuSans-43" x="237.513672"/>
    </g>
   </g>
   <g id="text_25">
    <!-- DOT -->
    <g style="fill: #262626" transform="translate(141.797059 579.292907) scale(0.06 -0.06)">
     <use xlink:href="#DejaVuSans-44"/>
     <use xlink:href="#DejaVuSans-4f" x="77.001953"/>
     <use xlink:href="#DejaVuSans-54" x="155.712891"/>
    </g>
   </g>
   <g id="text_26">
    <!-- LTC -->
    <g style="fill: #262626" transform="translate(139.11966 541.997677) scale(0.06 -0.06)">
     <use xlink:href="#DejaVuSans-4c"/>
     <use xlink:href="#DejaVuSans-54" x="41.962891"/>
     <use xlink:href="#DejaVuSans-43" x="97.171875"/>
    </g>
   </g>
   <g id="text_27">
    <!-- AVAX -->
    <g style="fill: #262626" transform="translate(150.562361 556.420576) scale(0.06 -0.06)">
     <use xlink:href="#DejaVuSans-41"/>
     <use xlink:href="#DejaVuSans-56" x="62.033203"/>
     <use xlink:href="#DejaVuSans-41" x="124.066406"/>
     <use xlink:href="#DejaVuSans-58" x="192.474609"/>
    </g>
   </g>
   <g id="text_28">
    <!-- DAI -->
    <g style="fill: #262626" transform="translate(96.155259 520.422267) scale(0.06 -0.06)">
     <use xlink:href="#DejaVuSans-44"/>
     <use xlink:href="#DejaVuSans-41" x="75.251953"/>
     <use xlink:href="#DejaVuSans-49" x="143.660156"/>
    </g>
   </g>
   <g id="text_29">
    <!-- LINK -->
    <g style="fill: #262626" transform="translate(145.676952 540.623368) scale(0.06 -0.06)">
     <defs>
      <path id="DejaVuSans-4b" d="M 628 4666 
L 1259 4666 
L 1259 2694 
L 3353 4666 
L 4166 4666 
L 1850 2491 
L 4331 0 
L 3500 0 
L 1259 2247 
L 1259 0 
L 628 0 
L 628 4666 
z
" transform="scale(0.015625)"/>
     </defs>
     <use xlink:href="#DejaVuSans-4c"/>
     <use xlink:href="#DejaVuSans-49" x="55.712891"/>
     <use xlink:href="#DejaVuSans-4e" x="85.205078"/>
     <use xlink:href="#DejaVuSans-4b" x="160.009766"/>
    </g>
   </g>
   <g id="text_30">
    <!-- LEO -->
    <g style="fill: #262626" transform="translate(126.777959 472.920676) scale(0.06 -0.06)">
     <use xlink:href="#DejaVuSans-4c"/>
     <use xlink:href="#DejaVuSans-45" x="55.712891"/>
     <use xlink:href="#DejaVuSans-4f" x="118.896484"/>
    </g>
   </g>
   <g id="text_31">
    <!-- XLM -->
    <g style="fill: #262626" transform="translate(145.564663 527.410645) scale(0.06 -0.06)">
     <use xlink:href="#DejaVuSans-58"/>
     <use xlink:href="#DejaVuSans-4c" x="68.505859"/>
     <use xlink:href="#DejaVuSans-4d" x="124.21875"/>
    </g>
   </g>
   <g id="text_32">
    <!-- WSTETH -->
    <g style="fill: #262626" transform="translate(133.330297 536.573112) scale(0.06 -0.06)">
     <defs>
      <path id="DejaVuSans-57" d="M 213 4666 
L 850 4666 
L 1831 722 
L 2809 4666 
L 3519 4666 
L 4500 722 
L 5478 4666 
L 6119 4666 
L 4947 0 
L 4153 0 
L 3169 4050 
L 2175 0 
L 1381 0 
L 213 4666 
z
" transform="scale(0.015625)"/>
     </defs>
     <use xlink:href="#DejaVuSans-57"/>
     <use xlink:href="#DejaVuSans-53" x="98.876953"/>
     <use xlink:href="#DejaVuSans-54" x="162.353516"/>
     <use xlink:href="#DejaVuSans-45" x="223.4375"/>
     <use xlink:href="#DejaVuSans-54" x="286.621094"/>
     <use xlink:href="#DejaVuSans-48" x="347.705078"/>
    </g>
   </g>
   <g id="text_33">
    <!-- HBAR -->
    <g style="fill: #262626" transform="translate(155.518757 541.534034) scale(0.06 -0.06)">
     <use xlink:href="#DejaVuSans-48"/>
     <use xlink:href="#DejaVuSans-42" x="75.195312"/>
     <use xlink:href="#DejaVuSans-41" x="143.798828"/>
     <use xlink:href="#DejaVuSans-52" x="212.207031"/>
    </g>
   </g>
   <g id="text_34">
    <!-- SHIB -->
    <g style="fill: #262626" transform="translate(163.881343 539.710596) scale(0.06 -0.06)">
     <use xlink:href="#DejaVuSans-53"/>
     <use xlink:href="#DejaVuSans-48" x="63.476562"/>
     <use xlink:href="#DejaVuSans-49" x="138.671875"/>
     <use xlink:href="#DejaVuSans-42" x="168.164062"/>
    </g>
   </g>
   <g id="text_35">
    <!-- BCH -->
    <g style="fill: #262626" transform="translate(144.244725 540.349462) scale(0.06 -0.06)">
     <use xlink:href="#DejaVuSans-42"/>
     <use xlink:href="#DejaVuSans-43" x="66.853516"/>
     <use xlink:href="#DejaVuSans-48" x="136.677734"/>
    </g>
   </g>
   <g id="text_36">
    <!-- Frontera Eficiente para CFDS -->
    <g style="fill: #262626" transform="translate(300.001875 6.96) scale(0.12 -0.12)">
     <defs>
      <path id="DejaVuSans-46" d="M 628 4666 
L 3309 4666 
L 3309 4134 
L 1259 4134 
L 1259 2759 
L 3109 2759 
L 3109 2228 
L 1259 2228 
L 1259 0 
L 628 0 
L 628 4666 
z
" transform="scale(0.015625)"/>
      <path id="DejaVuSans-20" transform="scale(0.015625)"/>
      <path id="DejaVuSans-66" d="M 2375 4863 
L 2375 4384 
L 1825 4384 
Q 1516 4384 1395 4259 
Q 1275 4134 1275 3809 
L 1275 3500 
L 2222 3500 
L 2222 3053 
L 1275 3053 
L 1275 0 
L 697 0 
L 697 3053 
L 147 3053 
L 147 3500 
L 697 3500 
L 697 3744 
Q 697 4328 969 4595 
Q 1241 4863 1831 4863 
L 2375 4863 
z
" transform="scale(0.015625)"/>
      <path id="DejaVuSans-63" d="M 3122 3366 
L 3122 2828 
Q 2878 2963 2633 3030 
Q 2388 3097 2138 3097 
Q 1578 3097 1268 2742 
Q 959 2388 959 1747 
Q 959 1106 1268 751 
Q 1578 397 2138 397 
Q 2388 397 2633 464 
Q 2878 531 3122 666 
L 3122 134 
Q 2881 22 2623 -34 
Q 2366 -91 2075 -91 
Q 1284 -91 818 406 
Q 353 903 353 1747 
Q 353 2603 823 3093 
Q 1294 3584 2113 3584 
Q 2378 3584 2631 3529 
Q 2884 3475 3122 3366 
z
" transform="scale(0.015625)"/>
      <path id="DejaVuSans-70" d="M 1159 525 
L 1159 -1331 
L 581 -1331 
L 581 3500 
L 1159 3500 
L 1159 2969 
Q 1341 3281 1617 3432 
Q 1894 3584 2278 3584 
Q 2916 3584 3314 3078 
Q 3713 2572 3713 1747 
Q 3713 922 3314 415 
Q 2916 -91 2278 -91 
Q 1894 -91 1617 61 
Q 1341 213 1159 525 
z
M 3116 1747 
Q 3116 2381 2855 2742 
Q 2594 3103 2138 3103 
Q 1681 3103 1420 2742 
Q 1159 2381 1159 1747 
Q 1159 1113 1420 752 
Q 1681 391 2138 391 
Q 2594 391 2855 752 
Q 3116 1113 3116 1747 
z
" transform="scale(0.015625)"/>
     </defs>
     <use xlink:href="#DejaVuSans-46"/>
     <use xlink:href="#DejaVuSans-72" x="50.269531"/>
     <use xlink:href="#DejaVuSans-6f" x="89.132812"/>
     <use xlink:href="#DejaVuSans-6e" x="150.314453"/>
     <use xlink:href="#DejaVuSans-74" x="213.693359"/>
     <use xlink:href="#DejaVuSans-65" x="252.902344"/>
     <use xlink:href="#DejaVuSans-72" x="314.425781"/>
     <use xlink:href="#DejaVuSans-61" x="355.539062"/>
     <use xlink:href="#DejaVuSans-20" x="416.818359"/>
     <use xlink:href="#DejaVuSans-45" x="448.605469"/>
     <use xlink:href="#DejaVuSans-66" x="511.789062"/>
     <use xlink:href="#DejaVuSans-69" x="546.994141"/>
     <use xlink:href="#DejaVuSans-63" x="574.777344"/>
     <use xlink:href="#DejaVuSans-69" x="629.757812"/>
     <use xlink:href="#DejaVuSans-65" x="657.541016"/>
     <use xlink:href="#DejaVuSans-6e" x="719.064453"/>
     <use xlink:href="#DejaVuSans-74" x="782.443359"/>
     <use xlink:href="#DejaVuSans-65" x="821.652344"/>
     <use xlink:href="#DejaVuSans-20" x="883.175781"/>
     <use xlink:href="#DejaVuSans-70" x="914.962891"/>
     <use xlink:href="#DejaVuSans-61" x="978.439453"/>
     <use xlink:href="#DejaVuSans-72" x="1039.71875"/>
     <use xlink:href="#DejaVuSans-61" x="1080.832031"/>
     <use xlink:href="#DejaVuSans-20" x="1142.111328"/>
     <use xlink:href="#DejaVuSans-43" x="1173.898438"/>
     <use xlink:href="#DejaVuSans-46" x="1243.722656"/>
     <use xlink:href="#DejaVuSans-44" x="1301.242188"/>
     <use xlink:href="#DejaVuSans-53" x="1378.244141"/>
    </g>
   </g>
   <g id="axes_2">
    <g id="patch_8">
     <path d="M 386.505 341.37 
L 674.9865 341.37 
L 674.9865 45.801 
L 386.505 45.801 
z
" style="fill: #ffffff"/>
    </g>
    <g id="matplotlib.axis_3">
     <g id="xtick_6">
      <g id="line2d_14">
       <path d="M 386.505 341.37 
L 386.505 45.801 
" clip-path="url(#p529eb9e471)" style="fill: none; stroke: #cccccc; stroke-linecap: round"/>
      </g>
      <g id="text_37">
       <!-- 0.0 -->
       <g style="fill: #262626" transform="translate(377.758281 359.228281) scale(0.11 -0.11)">
        <use xlink:href="#DejaVuSans-30"/>
        <use xlink:href="#DejaVuSans-2e" x="63.623047"/>
        <use xlink:href="#DejaVuSans-30" x="95.410156"/>
       </g>
      </g>
     </g>
     <g id="xtick_7">
      <g id="line2d_15">
       <path d="M 438.019554 341.37 
L 438.019554 45.801 
" clip-path="url(#p529eb9e471)" style="fill: none; stroke: #cccccc; stroke-linecap: round"/>
      </g>
      <g id="text_38">
       <!-- 0.2 -->
       <g style="fill: #262626" transform="translate(429.272835 359.228281) scale(0.11 -0.11)">
        <use xlink:href="#DejaVuSans-30"/>
        <use xlink:href="#DejaVuSans-2e" x="63.623047"/>
        <use xlink:href="#DejaVuSans-32" x="95.410156"/>
       </g>
      </g>
     </g>
     <g id="xtick_8">
      <g id="line2d_16">
       <path d="M 489.534107 341.37 
L 489.534107 45.801 
" clip-path="url(#p529eb9e471)" style="fill: none; stroke: #cccccc; stroke-linecap: round"/>
      </g>
      <g id="text_39">
       <!-- 0.4 -->
       <g style="fill: #262626" transform="translate(480.787388 359.228281) scale(0.11 -0.11)">
        <use xlink:href="#DejaVuSans-30"/>
        <use xlink:href="#DejaVuSans-2e" x="63.623047"/>
        <use xlink:href="#DejaVuSans-34" x="95.410156"/>
       </g>
      </g>
     </g>
     <g id="xtick_9">
      <g id="line2d_17">
       <path d="M 541.048661 341.37 
L 541.048661 45.801 
" clip-path="url(#p529eb9e471)" style="fill: none; stroke: #cccccc; stroke-linecap: round"/>
      </g>
      <g id="text_40">
       <!-- 0.6 -->
       <g style="fill: #262626" transform="translate(532.301942 359.228281) scale(0.11 -0.11)">
        <use xlink:href="#DejaVuSans-30"/>
        <use xlink:href="#DejaVuSans-2e" x="63.623047"/>
        <use xlink:href="#DejaVuSans-36" x="95.410156"/>
       </g>
      </g>
     </g>
     <g id="xtick_10">
      <g id="line2d_18">
       <path d="M 592.563214 341.37 
L 592.563214 45.801 
" clip-path="url(#p529eb9e471)" style="fill: none; stroke: #cccccc; stroke-linecap: round"/>
      </g>
      <g id="text_41">
       <!-- 0.8 -->
       <g style="fill: #262626" transform="translate(583.816496 359.228281) scale(0.11 -0.11)">
        <use xlink:href="#DejaVuSans-30"/>
        <use xlink:href="#DejaVuSans-2e" x="63.623047"/>
        <use xlink:href="#DejaVuSans-38" x="95.410156"/>
       </g>
      </g>
     </g>
     <g id="xtick_11">
      <g id="line2d_19">
       <path d="M 644.077768 341.37 
L 644.077768 45.801 
" clip-path="url(#p529eb9e471)" style="fill: none; stroke: #cccccc; stroke-linecap: round"/>
      </g>
      <g id="text_42">
       <!-- 1.0 -->
       <g style="fill: #262626" transform="translate(635.331049 359.228281) scale(0.11 -0.11)">
        <use xlink:href="#DejaVuSans-31"/>
        <use xlink:href="#DejaVuSans-2e" x="63.623047"/>
        <use xlink:href="#DejaVuSans-30" x="95.410156"/>
       </g>
      </g>
     </g>
    </g>
    <g id="matplotlib.axis_4">
     <g id="ytick_8">
      <g id="line2d_20">
       <path d="M 386.505 341.37 
L 674.9865 341.37 
" clip-path="url(#p529eb9e471)" style="fill: none; stroke: #cccccc; stroke-linecap: round"/>
      </g>
      <g id="text_43">
       <!-- −0.4 -->
       <g style="fill: #262626" transform="translate(350.293906 345.549141) scale(0.11 -0.11)">
        <use xlink:href="#DejaVuSans-2212"/>
        <use xlink:href="#DejaVuSans-30" x="83.789062"/>
        <use xlink:href="#DejaVuSans-2e" x="147.412109"/>
        <use xlink:href="#DejaVuSans-34" x="179.199219"/>
       </g>
      </g>
     </g>
     <g id="ytick_9">
      <g id="line2d_21">
       <path d="M 386.505 299.145857 
L 674.9865 299.145857 
" clip-path="url(#p529eb9e471)" style="fill: none; stroke: #cccccc; stroke-linecap: round"/>
      </g>
      <g id="text_44">
       <!-- −0.3 -->
       <g style="fill: #262626" transform="translate(350.293906 303.324998) scale(0.11 -0.11)">
        <defs>
         <path id="DejaVuSans-33" d="M 2597 2516 
Q 3050 2419 3304 2112 
Q 3559 1806 3559 1356 
Q 3559 666 3084 287 
Q 2609 -91 1734 -91 
Q 1441 -91 1130 -33 
Q 819 25 488 141 
L 488 750 
Q 750 597 1062 519 
Q 1375 441 1716 441 
Q 2309 441 2620 675 
Q 2931 909 2931 1356 
Q 2931 1769 2642 2001 
Q 2353 2234 1838 2234 
L 1294 2234 
L 1294 2753 
L 1863 2753 
Q 2328 2753 2575 2939 
Q 2822 3125 2822 3475 
Q 2822 3834 2567 4026 
Q 2313 4219 1838 4219 
Q 1578 4219 1281 4162 
Q 984 4106 628 3988 
L 628 4550 
Q 988 4650 1302 4700 
Q 1616 4750 1894 4750 
Q 2613 4750 3031 4423 
Q 3450 4097 3450 3541 
Q 3450 3153 3228 2886 
Q 3006 2619 2597 2516 
z
" transform="scale(0.015625)"/>
        </defs>
        <use xlink:href="#DejaVuSans-2212"/>
        <use xlink:href="#DejaVuSans-30" x="83.789062"/>
        <use xlink:href="#DejaVuSans-2e" x="147.412109"/>
        <use xlink:href="#DejaVuSans-33" x="179.199219"/>
       </g>
      </g>
     </g>
     <g id="ytick_10">
      <g id="line2d_22">
       <path d="M 386.505 256.921714 
L 674.9865 256.921714 
" clip-path="url(#p529eb9e471)" style="fill: none; stroke: #cccccc; stroke-linecap: round"/>
      </g>
      <g id="text_45">
       <!-- −0.2 -->
       <g style="fill: #262626" transform="translate(350.293906 261.100855) scale(0.11 -0.11)">
        <use xlink:href="#DejaVuSans-2212"/>
        <use xlink:href="#DejaVuSans-30" x="83.789062"/>
        <use xlink:href="#DejaVuSans-2e" x="147.412109"/>
        <use xlink:href="#DejaVuSans-32" x="179.199219"/>
       </g>
      </g>
     </g>
     <g id="ytick_11">
      <g id="line2d_23">
       <path d="M 386.505 214.697571 
L 674.9865 214.697571 
" clip-path="url(#p529eb9e471)" style="fill: none; stroke: #cccccc; stroke-linecap: round"/>
      </g>
      <g id="text_46">
       <!-- −0.1 -->
       <g style="fill: #262626" transform="translate(350.293906 218.876712) scale(0.11 -0.11)">
        <use xlink:href="#DejaVuSans-2212"/>
        <use xlink:href="#DejaVuSans-30" x="83.789062"/>
        <use xlink:href="#DejaVuSans-2e" x="147.412109"/>
        <use xlink:href="#DejaVuSans-31" x="179.199219"/>
       </g>
      </g>
     </g>
     <g id="ytick_12">
      <g id="line2d_24">
       <path d="M 386.505 172.473429 
L 674.9865 172.473429 
" clip-path="url(#p529eb9e471)" style="fill: none; stroke: #cccccc; stroke-linecap: round"/>
      </g>
      <g id="text_47">
       <!-- 0.0 -->
       <g style="fill: #262626" transform="translate(359.511562 176.652569) scale(0.11 -0.11)">
        <use xlink:href="#DejaVuSans-30"/>
        <use xlink:href="#DejaVuSans-2e" x="63.623047"/>
        <use xlink:href="#DejaVuSans-30" x="95.410156"/>
       </g>
      </g>
     </g>
     <g id="ytick_13">
      <g id="line2d_25">
       <path d="M 386.505 130.249286 
L 674.9865 130.249286 
" clip-path="url(#p529eb9e471)" style="fill: none; stroke: #cccccc; stroke-linecap: round"/>
      </g>
      <g id="text_48">
       <!-- 0.1 -->
       <g style="fill: #262626" transform="translate(359.511562 134.428426) scale(0.11 -0.11)">
        <use xlink:href="#DejaVuSans-30"/>
        <use xlink:href="#DejaVuSans-2e" x="63.623047"/>
        <use xlink:href="#DejaVuSans-31" x="95.410156"/>
       </g>
      </g>
     </g>
     <g id="ytick_14">
      <g id="line2d_26">
       <path d="M 386.505 88.025143 
L 674.9865 88.025143 
" clip-path="url(#p529eb9e471)" style="fill: none; stroke: #cccccc; stroke-linecap: round"/>
      </g>
      <g id="text_49">
       <!-- 0.2 -->
       <g style="fill: #262626" transform="translate(359.511562 92.204283) scale(0.11 -0.11)">
        <use xlink:href="#DejaVuSans-30"/>
        <use xlink:href="#DejaVuSans-2e" x="63.623047"/>
        <use xlink:href="#DejaVuSans-32" x="95.410156"/>
       </g>
      </g>
     </g>
     <g id="ytick_15">
      <g id="line2d_27">
       <path d="M 386.505 45.801 
L 674.9865 45.801 
" clip-path="url(#p529eb9e471)" style="fill: none; stroke: #cccccc; stroke-linecap: round"/>
      </g>
      <g id="text_50">
       <!-- 0.3 -->
       <g style="fill: #262626" transform="translate(359.511562 49.980141) scale(0.11 -0.11)">
        <use xlink:href="#DejaVuSans-30"/>
        <use xlink:href="#DejaVuSans-2e" x="63.623047"/>
        <use xlink:href="#DejaVuSans-33" x="95.410156"/>
       </g>
      </g>
     </g>
    </g>
    <g id="PathCollection_25">
     <g clip-path="url(#p529eb9e471)">
      <use xlink:href="#m3890fe9df0" x="503.669733" y="131.98758" style="fill: #4c72b0; stroke: #4c72b0"/>
     </g>
    </g>
    <g id="PathCollection_26">
     <g clip-path="url(#p529eb9e471)">
      <use xlink:href="#m50ebce13e8" x="534.202812" y="222.30449" style="fill: #dd8452; stroke: #dd8452"/>
     </g>
    </g>
    <g id="PathCollection_27">
     <g clip-path="url(#p529eb9e471)">
      <use xlink:href="#ma008665b59" x="515.695209" y="147.389325" style="fill: #55a868; stroke: #55a868"/>
     </g>
    </g>
    <g id="PathCollection_28">
     <g clip-path="url(#p529eb9e471)">
      <use xlink:href="#m0fae5ea12b" x="578.318329" y="99.621895" style="fill: #c44e52; stroke: #c44e52"/>
     </g>
    </g>
    <g id="PathCollection_29">
     <g clip-path="url(#p529eb9e471)">
      <use xlink:href="#m0d513053a4" x="583.316998" y="257.815689" style="fill: #8172b3; stroke: #8172b3"/>
     </g>
    </g>
    <g id="PathCollection_30">
     <g clip-path="url(#p529eb9e471)">
      <use xlink:href="#m40bf355db1" x="604.514334" y="185.257523" style="fill: #937860; stroke: #937860"/>
     </g>
    </g>
    <g id="PathCollection_31">
     <g clip-path="url(#p529eb9e471)">
      <use xlink:href="#m576351823a" x="588.209497" y="200.049851" style="fill: #da8bc3; stroke: #da8bc3"/>
     </g>
    </g>
    <g id="PathCollection_32">
     <g clip-path="url(#p529eb9e471)">
      <use xlink:href="#m9f9a641360" x="547.382564" y="94.26561" style="fill: #8c8c8c; stroke: #8c8c8c"/>
     </g>
    </g>
    <g id="PathCollection_33">
     <g clip-path="url(#p529eb9e471)">
      <use xlink:href="#m525d4a5ecd" x="2517.648681" y="465.080488" style="fill: #ccb974; stroke: #ccb974"/>
     </g>
    </g>
    <g id="PathCollection_34">
     <g clip-path="url(#p529eb9e471)">
      <use xlink:href="#mb716456894" x="592.945478" y="298.941323" style="fill: #64b5cd; stroke: #64b5cd"/>
     </g>
    </g>
    <g id="PathCollection_35">
     <g clip-path="url(#p529eb9e471)">
      <use xlink:href="#m3890fe9df0" x="565.736104" y="317.845437" style="fill: #4c72b0; stroke: #4c72b0"/>
     </g>
    </g>
    <g id="PathCollection_36">
     <g clip-path="url(#p529eb9e471)">
      <use xlink:href="#m50ebce13e8" x="555.576461" y="225.760675" style="fill: #dd8452; stroke: #dd8452"/>
     </g>
    </g>
    <g id="PathCollection_37">
     <g clip-path="url(#p529eb9e471)">
      <use xlink:href="#ma008665b59" x="598.996871" y="261.371911" style="fill: #55a868; stroke: #55a868"/>
     </g>
    </g>
    <g id="PathCollection_38">
     <g clip-path="url(#p529eb9e471)">
      <use xlink:href="#m0fae5ea12b" x="392.543978" y="172.489347" style="fill: #c44e52; stroke: #c44e52"/>
     </g>
    </g>
    <g id="PathCollection_39">
     <g clip-path="url(#p529eb9e471)">
      <use xlink:href="#m0d513053a4" x="580.458724" y="222.367402" style="fill: #8172b3; stroke: #8172b3"/>
     </g>
    </g>
    <g id="PathCollection_40">
     <g clip-path="url(#p529eb9e471)">
      <use xlink:href="#m40bf355db1" x="508.74471" y="55.204304" style="fill: #937860; stroke: #937860"/>
     </g>
    </g>
    <g id="PathCollection_41">
     <g clip-path="url(#p529eb9e471)">
      <use xlink:href="#m576351823a" x="580.032633" y="189.744184" style="fill: #da8bc3; stroke: #da8bc3"/>
     </g>
    </g>
    <g id="PathCollection_42">
     <g clip-path="url(#p529eb9e471)">
      <use xlink:href="#m9f9a641360" x="533.608175" y="212.367013" style="fill: #8c8c8c; stroke: #8c8c8c"/>
     </g>
    </g>
    <g id="PathCollection_43">
     <g clip-path="url(#p529eb9e471)">
      <use xlink:href="#m525d4a5ecd" x="617.804387" y="224.615906" style="fill: #ccb974; stroke: #ccb974"/>
     </g>
    </g>
    <g id="PathCollection_44">
     <g clip-path="url(#p529eb9e471)">
      <use xlink:href="#mb716456894" x="649.537008" y="220.113698" style="fill: #64b5cd; stroke: #64b5cd"/>
     </g>
    </g>
    <g id="PathCollection_45">
     <g clip-path="url(#p529eb9e471)">
      <use xlink:href="#m3890fe9df0" x="575.024006" y="221.691106" style="fill: #4c72b0; stroke: #4c72b0"/>
     </g>
    </g>
    <g id="patch_9">
     <path d="M 386.505 45.801 
L 93.563791 470.112246 
" style="fill: none; stroke: #808080; stroke-linejoin: miter"/>
    </g>
    <g id="patch_10">
     <path d="M 674.9865 341.37 
L 169.588118 589.820586 
" style="fill: none; stroke: #808080; stroke-linejoin: miter"/>
    </g>
    <g id="patch_11">
     <path d="M 386.505 341.37 
L 386.505 45.801 
" style="fill: none; stroke: #cccccc; stroke-width: 1.25; stroke-linejoin: miter; stroke-linecap: square"/>
    </g>
    <g id="patch_12">
     <path d="M 674.9865 341.37 
L 674.9865 45.801 
" style="fill: none; stroke: #cccccc; stroke-width: 1.25; stroke-linejoin: miter; stroke-linecap: square"/>
    </g>
    <g id="patch_13">
     <path d="M 386.505 341.37 
L 674.9865 341.37 
" style="fill: none; stroke: #cccccc; stroke-width: 1.25; stroke-linejoin: miter; stroke-linecap: square"/>
    </g>
    <g id="patch_14">
     <path d="M 386.505 45.801 
L 674.9865 45.801 
" style="fill: none; stroke: #cccccc; stroke-width: 1.25; stroke-linejoin: miter; stroke-linecap: square"/>
    </g>
    <g id="text_51">
     <!-- BTC -->
     <g style="fill: #262626" transform="translate(504.669733 130.98758) scale(0.06 -0.06)">
      <use xlink:href="#DejaVuSans-42"/>
      <use xlink:href="#DejaVuSans-54" x="68.603516"/>
      <use xlink:href="#DejaVuSans-43" x="123.8125"/>
     </g>
    </g>
    <g id="text_52">
     <!-- ETH -->
     <g style="fill: #262626" transform="translate(535.202812 221.30449) scale(0.06 -0.06)">
      <use xlink:href="#DejaVuSans-45"/>
      <use xlink:href="#DejaVuSans-54" x="63.183594"/>
      <use xlink:href="#DejaVuSans-48" x="124.267578"/>
     </g>
    </g>
    <g id="text_53">
     <!-- BNB -->
     <g style="fill: #262626" transform="translate(516.695209 146.389325) scale(0.06 -0.06)">
      <use xlink:href="#DejaVuSans-42"/>
      <use xlink:href="#DejaVuSans-4e" x="68.603516"/>
      <use xlink:href="#DejaVuSans-42" x="143.408203"/>
     </g>
    </g>
    <g id="text_54">
     <!-- XRP -->
     <g style="fill: #262626" transform="translate(579.318329 98.621895) scale(0.06 -0.06)">
      <use xlink:href="#DejaVuSans-58"/>
      <use xlink:href="#DejaVuSans-52" x="68.505859"/>
      <use xlink:href="#DejaVuSans-50" x="137.988281"/>
     </g>
    </g>
    <g id="text_55">
     <!-- ADA -->
     <g style="fill: #262626" transform="translate(584.316998 256.815689) scale(0.06 -0.06)">
      <use xlink:href="#DejaVuSans-41"/>
      <use xlink:href="#DejaVuSans-44" x="68.408203"/>
      <use xlink:href="#DejaVuSans-41" x="143.660156"/>
     </g>
    </g>
    <g id="text_56">
     <!-- SOL -->
     <g style="fill: #262626" transform="translate(605.514334 184.257523) scale(0.06 -0.06)">
      <use xlink:href="#DejaVuSans-53"/>
      <use xlink:href="#DejaVuSans-4f" x="63.476562"/>
      <use xlink:href="#DejaVuSans-4c" x="142.1875"/>
     </g>
    </g>
    <g id="text_57">
     <!-- DOGE -->
     <g style="fill: #262626" transform="translate(589.209497 199.049851) scale(0.06 -0.06)">
      <use xlink:href="#DejaVuSans-44"/>
      <use xlink:href="#DejaVuSans-4f" x="77.001953"/>
      <use xlink:href="#DejaVuSans-47" x="155.712891"/>
      <use xlink:href="#DejaVuSans-45" x="233.203125"/>
     </g>
    </g>
    <g id="text_58">
     <!-- TRX -->
     <g style="fill: #262626" transform="translate(548.382564 93.26561) scale(0.06 -0.06)">
      <use xlink:href="#DejaVuSans-54"/>
      <use xlink:href="#DejaVuSans-52" x="61.083984"/>
      <use xlink:href="#DejaVuSans-58" x="130.566406"/>
     </g>
    </g>
    <g id="text_59">
     <!-- MATIC -->
     <g style="fill: #262626" transform="translate(593.945478 297.941323) scale(0.06 -0.06)">
      <use xlink:href="#DejaVuSans-4d"/>
      <use xlink:href="#DejaVuSans-41" x="86.279297"/>
      <use xlink:href="#DejaVuSans-54" x="146.9375"/>
      <use xlink:href="#DejaVuSans-49" x="208.021484"/>
      <use xlink:href="#DejaVuSans-43" x="237.513672"/>
     </g>
    </g>
    <g id="text_60">
     <!-- DOT -->
     <g style="fill: #262626" transform="translate(566.736104 316.845437) scale(0.06 -0.06)">
      <use xlink:href="#DejaVuSans-44"/>
      <use xlink:href="#DejaVuSans-4f" x="77.001953"/>
      <use xlink:href="#DejaVuSans-54" x="155.712891"/>
     </g>
    </g>
    <g id="text_61">
     <!-- LTC -->
     <g style="fill: #262626" transform="translate(556.576461 224.760675) scale(0.06 -0.06)">
      <use xlink:href="#DejaVuSans-4c"/>
      <use xlink:href="#DejaVuSans-54" x="41.962891"/>
      <use xlink:href="#DejaVuSans-43" x="97.171875"/>
     </g>
    </g>
    <g id="text_62">
     <!-- AVAX -->
     <g style="fill: #262626" transform="translate(599.996871 260.371911) scale(0.06 -0.06)">
      <use xlink:href="#DejaVuSans-41"/>
      <use xlink:href="#DejaVuSans-56" x="62.033203"/>
      <use xlink:href="#DejaVuSans-41" x="124.066406"/>
      <use xlink:href="#DejaVuSans-58" x="192.474609"/>
     </g>
    </g>
    <g id="text_63">
     <!-- DAI -->
     <g style="fill: #262626" transform="translate(393.543978 171.489347) scale(0.06 -0.06)">
      <use xlink:href="#DejaVuSans-44"/>
      <use xlink:href="#DejaVuSans-41" x="75.251953"/>
      <use xlink:href="#DejaVuSans-49" x="143.660156"/>
     </g>
    </g>
    <g id="text_64">
     <!-- LINK -->
     <g style="fill: #262626" transform="translate(581.458724 221.367402) scale(0.06 -0.06)">
      <use xlink:href="#DejaVuSans-4c"/>
      <use xlink:href="#DejaVuSans-49" x="55.712891"/>
      <use xlink:href="#DejaVuSans-4e" x="85.205078"/>
      <use xlink:href="#DejaVuSans-4b" x="160.009766"/>
     </g>
    </g>
    <g id="text_65">
     <!-- LEO -->
     <g style="fill: #262626" transform="translate(509.74471 54.204304) scale(0.06 -0.06)">
      <use xlink:href="#DejaVuSans-4c"/>
      <use xlink:href="#DejaVuSans-45" x="55.712891"/>
      <use xlink:href="#DejaVuSans-4f" x="118.896484"/>
     </g>
    </g>
    <g id="text_66">
     <!-- XLM -->
     <g style="fill: #262626" transform="translate(581.032633 188.744184) scale(0.06 -0.06)">
      <use xlink:href="#DejaVuSans-58"/>
      <use xlink:href="#DejaVuSans-4c" x="68.505859"/>
      <use xlink:href="#DejaVuSans-4d" x="124.21875"/>
     </g>
    </g>
    <g id="text_67">
     <!-- WSTETH -->
     <g style="fill: #262626" transform="translate(534.608175 211.367013) scale(0.06 -0.06)">
      <use xlink:href="#DejaVuSans-57"/>
      <use xlink:href="#DejaVuSans-53" x="98.876953"/>
      <use xlink:href="#DejaVuSans-54" x="162.353516"/>
      <use xlink:href="#DejaVuSans-45" x="223.4375"/>
      <use xlink:href="#DejaVuSans-54" x="286.621094"/>
      <use xlink:href="#DejaVuSans-48" x="347.705078"/>
     </g>
    </g>
    <g id="text_68">
     <!-- HBAR -->
     <g style="fill: #262626" transform="translate(618.804387 223.615906) scale(0.06 -0.06)">
      <use xlink:href="#DejaVuSans-48"/>
      <use xlink:href="#DejaVuSans-42" x="75.195312"/>
      <use xlink:href="#DejaVuSans-41" x="143.798828"/>
      <use xlink:href="#DejaVuSans-52" x="212.207031"/>
     </g>
    </g>
    <g id="text_69">
     <!-- SHIB -->
     <g style="fill: #262626" transform="translate(650.537008 219.113698) scale(0.06 -0.06)">
      <use xlink:href="#DejaVuSans-53"/>
      <use xlink:href="#DejaVuSans-48" x="63.476562"/>
      <use xlink:href="#DejaVuSans-49" x="138.671875"/>
      <use xlink:href="#DejaVuSans-42" x="168.164062"/>
     </g>
    </g>
    <g id="text_70">
     <!-- BCH -->
     <g style="fill: #262626" transform="translate(576.024006 220.691106) scale(0.06 -0.06)">
      <use xlink:href="#DejaVuSans-42"/>
      <use xlink:href="#DejaVuSans-43" x="66.853516"/>
      <use xlink:href="#DejaVuSans-48" x="136.677734"/>
     </g>
    </g>
   </g>
   <g id="legend_1">
    <g id="patch_15">
     <path d="M 73.67 86.34375 
L 197.780938 86.34375 
Q 199.980938 86.34375 199.980938 84.14375 
L 199.980938 20.66 
Q 199.980938 18.46 197.780938 18.46 
L 73.67 18.46 
Q 71.47 18.46 71.47 20.66 
L 71.47 84.14375 
Q 71.47 86.34375 73.67 86.34375 
z
" style="fill: #ffffff; opacity: 0.8; stroke: #cccccc; stroke-linejoin: miter"/>
    </g>
    <g id="line2d_28">
     <path d="M 75.87 27.368281 
L 86.87 27.368281 
L 97.87 27.368281 
" style="fill: none; stroke: #4c72b0; stroke-width: 1.5; stroke-linecap: round"/>
    </g>
    <g id="text_71">
     <!-- Efficient frontier -->
     <g style="fill: #262626" transform="translate(106.67 31.218281) scale(0.11 -0.11)">
      <use xlink:href="#DejaVuSans-45"/>
      <use xlink:href="#DejaVuSans-66" x="63.183594"/>
      <use xlink:href="#DejaVuSans-66" x="98.388672"/>
      <use xlink:href="#DejaVuSans-69" x="133.59375"/>
      <use xlink:href="#DejaVuSans-63" x="161.376953"/>
      <use xlink:href="#DejaVuSans-69" x="216.357422"/>
      <use xlink:href="#DejaVuSans-65" x="244.140625"/>
      <use xlink:href="#DejaVuSans-6e" x="305.664062"/>
      <use xlink:href="#DejaVuSans-74" x="369.042969"/>
      <use xlink:href="#DejaVuSans-20" x="408.251953"/>
      <use xlink:href="#DejaVuSans-66" x="440.039062"/>
      <use xlink:href="#DejaVuSans-72" x="475.244141"/>
      <use xlink:href="#DejaVuSans-6f" x="514.107422"/>
      <use xlink:href="#DejaVuSans-6e" x="575.289062"/>
      <use xlink:href="#DejaVuSans-74" x="638.667969"/>
      <use xlink:href="#DejaVuSans-69" x="677.876953"/>
      <use xlink:href="#DejaVuSans-65" x="705.660156"/>
      <use xlink:href="#DejaVuSans-72" x="767.183594"/>
     </g>
    </g>
    <g id="PathCollection_46">
     <g>
      <use xlink:href="#mb38c648c83" x="86.87" y="44.476719" style="fill: #1a1a1a; stroke: #1a1a1a"/>
     </g>
    </g>
    <g id="text_72">
     <!-- assets -->
     <g style="fill: #262626" transform="translate(106.67 47.364219) scale(0.11 -0.11)">
      <defs>
       <path id="DejaVuSans-73" d="M 2834 3397 
L 2834 2853 
Q 2591 2978 2328 3040 
Q 2066 3103 1784 3103 
Q 1356 3103 1142 2972 
Q 928 2841 928 2578 
Q 928 2378 1081 2264 
Q 1234 2150 1697 2047 
L 1894 2003 
Q 2506 1872 2764 1633 
Q 3022 1394 3022 966 
Q 3022 478 2636 193 
Q 2250 -91 1575 -91 
Q 1294 -91 989 -36 
Q 684 19 347 128 
L 347 722 
Q 666 556 975 473 
Q 1284 391 1588 391 
Q 1994 391 2212 530 
Q 2431 669 2431 922 
Q 2431 1156 2273 1281 
Q 2116 1406 1581 1522 
L 1381 1569 
Q 847 1681 609 1914 
Q 372 2147 372 2553 
Q 372 3047 722 3315 
Q 1072 3584 1716 3584 
Q 2034 3584 2315 3537 
Q 2597 3491 2834 3397 
z
" transform="scale(0.015625)"/>
      </defs>
      <use xlink:href="#DejaVuSans-61"/>
      <use xlink:href="#DejaVuSans-73" x="61.279297"/>
      <use xlink:href="#DejaVuSans-73" x="113.378906"/>
      <use xlink:href="#DejaVuSans-65" x="165.478516"/>
      <use xlink:href="#DejaVuSans-74" x="227.001953"/>
      <use xlink:href="#DejaVuSans-73" x="266.210938"/>
     </g>
    </g>
    <g id="PathCollection_47">
     <g>
      <use xlink:href="#m3381af7e2e" x="86.87" y="60.622656" style="fill: #c44e52; stroke: #c44e52"/>
     </g>
    </g>
    <g id="text_73">
     <!-- Max Sharpe -->
     <g style="fill: #262626" transform="translate(106.67 63.510156) scale(0.11 -0.11)">
      <defs>
       <path id="DejaVuSans-78" d="M 3513 3500 
L 2247 1797 
L 3578 0 
L 2900 0 
L 1881 1375 
L 863 0 
L 184 0 
L 1544 1831 
L 300 3500 
L 978 3500 
L 1906 2253 
L 2834 3500 
L 3513 3500 
z
" transform="scale(0.015625)"/>
       <path id="DejaVuSans-68" d="M 3513 2113 
L 3513 0 
L 2938 0 
L 2938 2094 
Q 2938 2591 2744 2837 
Q 2550 3084 2163 3084 
Q 1697 3084 1428 2787 
Q 1159 2491 1159 1978 
L 1159 0 
L 581 0 
L 581 4863 
L 1159 4863 
L 1159 2956 
Q 1366 3272 1645 3428 
Q 1925 3584 2291 3584 
Q 2894 3584 3203 3211 
Q 3513 2838 3513 2113 
z
" transform="scale(0.015625)"/>
      </defs>
      <use xlink:href="#DejaVuSans-4d"/>
      <use xlink:href="#DejaVuSans-61" x="86.279297"/>
      <use xlink:href="#DejaVuSans-78" x="147.558594"/>
      <use xlink:href="#DejaVuSans-20" x="206.738281"/>
      <use xlink:href="#DejaVuSans-53" x="238.525391"/>
      <use xlink:href="#DejaVuSans-68" x="302.001953"/>
      <use xlink:href="#DejaVuSans-61" x="365.380859"/>
      <use xlink:href="#DejaVuSans-72" x="426.660156"/>
      <use xlink:href="#DejaVuSans-70" x="467.773438"/>
      <use xlink:href="#DejaVuSans-65" x="531.25"/>
     </g>
    </g>
    <g id="PathCollection_48">
     <g>
      <use xlink:href="#m8c12014642" x="86.87" y="76.768594" style="fill: #55a868; stroke: #55a868"/>
     </g>
    </g>
    <g id="text_74">
     <!-- Max Return -->
     <g style="fill: #262626" transform="translate(106.67 79.656094) scale(0.11 -0.11)">
      <use xlink:href="#DejaVuSans-4d"/>
      <use xlink:href="#DejaVuSans-61" x="86.279297"/>
      <use xlink:href="#DejaVuSans-78" x="147.558594"/>
      <use xlink:href="#DejaVuSans-20" x="206.738281"/>
      <use xlink:href="#DejaVuSans-52" x="238.525391"/>
      <use xlink:href="#DejaVuSans-65" x="303.507812"/>
      <use xlink:href="#DejaVuSans-74" x="365.03125"/>
      <use xlink:href="#DejaVuSans-75" x="404.240234"/>
      <use xlink:href="#DejaVuSans-72" x="467.619141"/>
      <use xlink:href="#DejaVuSans-6e" x="506.982422"/>
     </g>
    </g>
   </g>
  </g>
 </g>
 <defs>
  <clipPath id="p600582dee5">
   <rect x="65.97" y="12.96" width="641.07" height="656.82"/>
  </clipPath>
  <clipPath id="p529eb9e471">
   <rect x="386.505" y="45.801" width="288.4815" height="295.569"/>
  </clipPath>
 </defs>
</svg>
